PathFileType	4	(X/Y/Z)	Patient4_TMGait_0pt2_01_right_13.trc.trc
DataRate	CameraRate	NumFrames	NumMarkers	Units	OrigDataRate	OrigDataStartFrame	OrigNumFrames
40.114613180516	40.114613180516	5	33	mm	40.114613180516	36	       141
Frame#	Time	Sacral			L.Shoulder			Chest			R.Shoulder			Neck			R.ASIS			L.ASIS			R.Thigh.Superior			R.Thigh.Lateral			R.Thigh.Inferior			R.Patella			L.Thigh.Superior			L.Thigh.Lateral			L.Thigh.Inferior			L.Patella			L.Shank.Superior			L.Shank.Lateral			L.Shank.Inferior			R.Shank.Superior			R.Shank.Lateral			R.Shank.Inferior			R.Heel			R.Midfoot.Superior			R.Midfoot.Lateral			R.Toe			L.Heel			L.Midfoot.Lateral			L.Midfoot.Superior			L.Toe			L.Elbow			L.Wrist			R.Elbow			R.Wrist			
		X1	Y1	Z1	X2	Y2	Z2	X3	Y3	Z3	X4	Y4	Z4	X5	Y5	Z5	X6	Y6	Z6	X7	Y7	Z7	X8	Y8	Z8	X9	Y9	Z9	X10	Y10	Z10	X11	Y11	Z11	X12	Y12	Z12	X13	Y13	Z13	X14	Y14	Z14	X15	Y15	Z15	X16	Y16	Z16	X17	Y17	Z17	X18	Y18	Z18	X19	Y19	Z19	X20	Y20	Z20	X21	Y21	Z21	X22	Y22	Z22	X23	Y23	Z23	X24	Y24	Z24	X25	Y25	Z25	X26	Y26	Z26	X27	Y27	Z27	X28	Y28	Z28	X29	Y29	Z29	X30	Y30	Z30	X31	Y31	Z31	X32	Y32	Z32	X33	Y33	Z33	

36	29.142500000000	741.564982281535	1014.030739453621	532.179840109014	983.776264236908	1428.838976949373	379.550033303122	1053.965812338398	1350.110654845750	552.691904808264	952.888145291030	1432.086260226707	712.863333792833	959.631035556882	1490.882682936693	533.251046605414	956.811038449083	935.098125319254	670.491399207782	967.927868526982	958.352725563750	394.148309551454	1010.313138714676	744.675565043886	630.883431088300	939.489007468263	630.154018407646	690.142076316588	1018.873642994543	583.967017424857	607.360650494780	1026.895681531579	495.921868994472	613.467275637707	986.968789378819	734.001457123490	419.438566165181	893.843001695954	630.546149042819	340.635661761780	961.896296368764	540.992639815683	408.381172961327	955.067357225348	468.536703810681	409.598397868118	910.380391587433	405.571495265617	392.322536004530	802.555903813174	316.635997519577	324.349233725686	824.735830257452	189.955185736796	384.022352020143	998.814482259250	405.751131759925	622.266832079370	932.694643981328	302.870806156918	691.854608112794	968.802285864730	207.126730811093	626.482493590895	831.949914283923	43.111860167740	612.504652751153	1005.790825054042	97.493964635710	632.485996895591	921.836961552656	37.419975727721	679.447292242511	1127.986936236495	46.599727067826	649.798844390662	669.618383673943	48.344323663374	402.695585021940	749.512525109807	40.710419119824	328.295174283045	835.639042858651	95.885020936225	361.362335119097	961.915406510705	36.928908022334	339.750089408354	1053.207960293245	1093.904353672104	246.755370210474	1296.838190275102	1061.055152741357	323.299765265867	835.491617120509	1101.161361701990	820.572029507419	923.360751821298	855.948555190643	841.909280159857	
37	29.167428571429	741.304675347432	1014.563374900395	540.903329035646	981.014742918919	1429.278612533910	384.846576876605	1053.553926046993	1350.806429474066	557.167897430858	954.483654568379	1432.827011954117	718.547495104038	958.528801282165	1491.567119227310	538.814490128506	957.806679908290	935.560163437479	676.617989920821	966.276350661376	959.103873895261	400.114923794679	1009.431042125593	744.143590706963	636.275214696485	937.814025668229	629.892295439421	695.187492788248	1016.225221516280	583.572926225908	611.630974952447	1023.362124101545	495.524669848020	617.010591122247	987.177911386511	735.594862350351	424.517359917838	894.855599052334	631.649292445273	345.492096641387	964.886026051028	542.148815428981	411.952277375412	958.635813081990	468.755193055722	412.361713708030	912.337395952208	406.681766494550	395.173165593731	802.277927195156	320.329088249475	327.339445792507	823.485485948689	192.474538443155	385.280992648923	995.181877249495	405.457274670478	625.117088685518	929.052716341977	302.146253498221	693.918965602450	964.603092623268	206.877625399963	627.550727871173	827.172334553087	43.184022741542	612.581729576979	1001.170701483065	97.423016539879	632.738070527175	917.061701392045	37.445102981099	679.494733461485	1123.319231025495	46.004235111677	649.892684038480	666.120111166572	53.550238615910	403.283351235785	745.621481764899	43.934777220064	328.831176216275	833.087175720802	96.991533416897	361.630585553046	957.633504850111	35.836397859317	339.804164187881	1041.803588720974	1090.812320181438	254.381983076174	1283.030562021016	1040.030013203209	329.884080590697	846.635630444344	1100.424149815385	831.992379065652	948.177001134255	860.869705103823	854.919497390086	
38	29.192357142857	740.883135414732	1014.962690006673	549.168760979728	977.826838599366	1429.668133306735	389.857052041860	1052.762034237606	1351.556993797845	561.346196030009	955.635807784813	1433.595210398149	723.913724892912	956.982686899596	1492.228041549271	544.078641765436	958.568641928849	935.968429654913	682.427094690013	964.644525945494	959.890354345661	405.876950583622	1008.440710056412	743.575901882135	641.520959020943	935.967955232694	629.611625212512	700.059364863841	1013.522817421702	583.166134394878	615.859107686309	1019.780501775745	495.136499924991	620.572818890654	988.287362169908	737.712008378906	429.566569263249	897.510163311407	632.764419535151	350.387597305758	969.889390019838	543.744963103553	415.703167210878	964.332097657126	469.126885392831	415.230611399568	916.066808630298	407.934258498576	398.250314914583	803.421849570834	324.985604600204	330.624794289285	822.753610409244	196.063972775759	386.914740480117	991.505080929810	405.174217462424	627.971139256019	925.292272711529	301.451698865598	695.931927379135	960.392690316410	206.658341303971	628.640327438673	822.361902217157	43.270578413960	612.646199776767	996.547630017153	97.351309999885	632.993148874079	912.252231254476	37.465278522829	679.519768904735	1118.613311541922	45.376496050638	649.970006279002	662.492305944257	61.269541170682	404.303248788454	741.302892519254	49.092954407526	329.758043355053	830.343445508320	99.176936491496	362.275387101558	952.306237380945	34.912664428048	340.207052776031	1029.149621935536	1087.774250111231	261.742863740281	1266.189214096992	1017.340214847375	335.420471084327	857.975636901903	1099.997231279451	843.145931679705	973.554745702446	867.287920834436	867.033386715325	
39	29.217285714286	740.290774132847	1015.196791239503	556.883938450104	974.219032589999	1429.983162697280	394.564680157653	1051.541174337225	1352.358884857047	565.239071668489	956.218161248154	1434.374550278412	728.935834030529	954.936498000096	1492.844123674894	549.011937977292	959.084206078484	936.322359387208	687.924539073461	963.075865338982	960.673603052293	411.454832137633	1007.421708052456	743.003603984214	646.600795891663	934.049477108984	629.304265813502	704.703813469651	1010.893209820531	582.751299772835	620.003676214198	1016.308989232542	494.735947468449	624.097471001373	990.362301846067	740.351239294436	434.646725771843	901.920095391474	633.904207019845	355.352825474676	976.974109169448	545.829324646643	419.717241664757	972.208425491471	469.701933656010	418.287708843905	921.600364627262	409.347549435101	401.617342232179	806.032123791442	330.791821223225	334.263198818096	822.376747921869	200.981445575242	389.011182889159	987.896459727376	404.884946788122	630.779379896479	921.493962987115	300.796387964720	697.866053349090	956.210428454497	206.460974084973	629.728754478415	817.514528356574	43.370587911212	612.697096384443	991.907459815306	97.284066507020	633.237168149546	907.401616288775	37.486729607260	679.524983392191	1113.860553777147	44.748671931648	650.040166548368	658.541633484092	72.087120476439	405.855603667844	736.288606439137	56.717655696187	331.176232895263	827.101149419817	102.809109140962	363.410541558316	945.439948638699	34.370203036583	341.058895837934	1015.424079096911	1084.858767982113	268.856093863769	1246.088604299654	993.425800282869	339.808930188480	869.342016824633	1099.858105831015	853.860421839642	999.255521377581	875.315678368619	878.135799047928	
40	29.242214285714	739.526294553884	1015.232532896599	563.982145913212	970.211687422746	1430.196094566132	398.947632709419	1049.856709716412	1353.201623962284	568.855954363073	956.123142116686	1435.142171369854	733.587551981326	952.348192801629	1493.388731959051	553.581767386654	959.357591403940	936.622255625573	693.125902520123	961.595590154656	961.397628814986	416.862507158797	1006.461856023108	742.452011221908	651.492469318857	932.171677987481	628.952398937620	709.066293485258	1008.464747985390	582.325740444724	624.008058593470	1013.109634756359	494.293949322220	627.506147587233	993.386928632041	743.463958902168	439.820358808875	908.068121062172	635.079538956983	360.410991648743	986.043200398856	548.415811450647	424.069889344569	982.148274112784	470.521771175428	421.614284478094	928.824524914660	410.933811152512	405.318043483268	810.038044570047	337.874023498108	338.292444927737	822.144677781523	207.422388278221	391.623680240730	984.472036323106	404.566035499362	633.476262482625	917.752991565028	300.185449071969	699.691526892201	952.096504386679	206.274242212382	630.786646449020	812.630284335443	43.481938033523	612.737930780165	987.240046872159	97.225940021584	633.459322268965	902.508518421299	37.512793487633	679.516137860409	1109.056908890712	44.152751453643	650.108905844735	654.085957255778	86.421042060514	408.009823978495	730.340359853000	67.224329986113	333.153605319294	823.055979543761	108.199857094854	365.114836246274	936.603255652191	34.451712711565	342.418680110936	1000.842788413889	1082.125843527165	275.732010998725	1222.606078904865	968.829588683849	342.981462667851	880.571684287713	1099.974267532414	863.964498467082	1025.003581254992	885.041278337228	888.127925203298	
